<?xml version="1.0" encoding="UTF-8"?><svg id="Layer_1" xmlns="http://www.w3.org/2000/svg" viewBox="0 0 1011.4 210.9"><defs><style>.cls-1{fill:#202d71;}</style></defs><path class="cls-1" d="M261.4,62.1c9,0,15.1,0,18.1.3,5.5.6,9.3,1.8,11.3,3.6,2.5,2.1,3.5,6.3,3.5,12.3s0,3.9-.2,6.6c-.2,3.3-1,9.6-2,19.2l-1.5,11.4c-1.3,12-2.3,19.8-3.3,23.7-1,5.7-2.8,9.9-4.8,12.6-2.3,2.4-5.8,4.2-10.8,4.8-3.3.6-9.3.9-18.1.9h-51.7c-1.7,0-2.9,0-3.7.3-.7,0-1.5.3-2,.9-.5.6-.7,1.8-1,3.5,0,.9-.2,2.9-.7,6.2h54.3c9.8,0,16.1.3,18.9.9,4,.6,6.8,2.1,8.3,4.5,2,2.4,3,6.6,3.3,13.3.5,3.6.5,9.7.5,18.7v4.8h-95.2c-10.1,0-16.6-.6-20.1-1.2-3.5-1.2-6-3-7.6-5.7-1-2.1-1.5-5.1-1.5-9.4v-2c.2-4.2,1-12,2.3-24l7.5-64.3c1.5-10.8,2.5-17.7,3-21.3,1.3-7.2,3-12.3,5.3-14.7,2.5-2.7,6-4.5,10.6-5.1,3.5-.6,11.1-.9,22.6-.9h54.8l-.1.1ZM203.3,104.7c-.5,0-1,.6-1.5,1.2-.2.6-.5,1.5-1,2.7,0,.9-.2,3-.8,6.6h52.3c1.5-.3,2.5-.9,3-1.5s.8-1.2.8-2.4c.2-1.2.5-3.6.8-6.9h-49.3c-2.3,0-3.8,0-4.3.3h0Z"/><path class="cls-1" d="M427.3,63.2c3.5.6,6,1.5,7.5,3,2.5,2.1,3.8,6.3,3.8,12.6s0,2.4-.2,4.2c0,3.6-.8,10.8-2,21.6l-4,33.6-3.5,30.6c-1.5,14.4-3,23.4-4.3,27.6-1,4.2-2.8,7.5-5,9.6-2,1.8-4.8,3-8.3,3.9-3.5.6-11.6,1.2-24.1.7h-54.5c-12.1.5-19.9,0-23.4-.7-3.5-.9-6-2.4-7.5-4.5-1.5-2.4-2.7-10.5-2.7-10.5v-4c.3-4.1,1-12.1,2.3-23.8l1.5-10.9c1.3-10.6,2.3-17.6,2.8-21.2,1.3-7.1,3.1-11.8,5.1-14.1,2.3-2.6,5.7-4.4,10-5,3.6-.6,10.3-.9,19.8-.9h53.7c2.1,0,3.6-.3,4.1-.3,1-.3,1.8-.9,2.3-1.5s.8-1.5.8-2.6c.3-1.2.5-3.2.8-6.5h-56.6c-9.2,0-15.7-.3-18.8-.6-4.6-.9-7.7-2.6-9.5-5.3-1.5-2.6-2.6-7.1-3.1-13.5,0-3.5-.3-9.4-.3-17.1v-5.9h97.5c7.3.3,12.6.6,15.6,1.2h0l.2.3ZM341.6,157.9c-.7,0-1.2.6-1.7,1.2s-.7,2.1-1,4.4c0,.9-.2,2.6-.7,5h48.2c2,0,3.4-.3,3.9-.3,1-.3,1.5-.6,1.7-1.2.5-.6.7-1.8,1-2.9.2-1.2.5-3.2.7-6.5h-48.5c-2,0-3.2,0-3.7.3h.1Z"/><path class="cls-1" d="M549.2,62.1h35.9c-1.5,12.1-2.5,20.2-3.5,24.5-1,5.7-2.8,10-5.1,12.4-2.5,2.7-7.1,4.5-13.2,5.1-3.3,0-9.6.3-19.2.3h-45.9c-3.5,0-6,0-7,.6-1,0-1.8.3-2.2.9-.5.6-1,1.8-1.5,3.6,0,.9-.2,3-.8,6l-6.3,53h91.1c-1.5,12.9-2.5,21.3-3.5,25.5-1,5.4-2.8,9.6-5.3,12-2.3,2.1-6,3.6-11,4.2-3.3.3-10,.6-20.3.6h-56.2c-12,0-19.8-.6-23.3-1.2-3.5-1.2-6-3-7.5-5.4-1-2.1-1.8-5.4-1.8-9.6v-1.3c.2-4.2,1-12.1,2.5-24.2,1-8.5,2.3-20.9,4.3-36.9,2-16.3,3-25.4,3.3-27.8,1.5-12.1,2.5-19.9,3-23.6,1.3-6.4,3-10.9,5.3-13.3s5.6-4.2,10.1-4.8c3.5-.6,9.9-.6,19-.6h59.2-.1Z"/><path class="cls-1" d="M785.2,125.9c-.2.4-.5.8-.8,1.2-.6.6-1.3,1.2-2,1.8-.1.1-.2.2-.4.3-4.6,3.6-10.4,5.4-16.1,5.4s-3.4-.2-5-.5c-.7-6.3-.7-12.9.1-19.8.8-7.3,3.1-14.3,6.4-20.7,6,0,12,1.9,16.3,5.8l-7,15.3,3.5,4.6,5,6.5h0v.1Z"/><polygon class="cls-1" points="844 112 832.3 137.5 801.9 139.8 800.9 139.9 813.1 113.3 814 113.3 844 112"/><polygon class="cls-1" points="811 112.4 798.9 138.9 798.4 138.4 789.1 126.1 786.8 123.1 780.4 114.7 779.9 114.1 780.8 112.2 780.8 112.2 785.7 101.5 787.4 97.9 788.9 94.4 791.6 88.5 792.9 90.1 798.4 96.9 795.3 103.7 801 111.2 804.2 104 810.6 111.9 811 112.4"/><path class="cls-1" d="M795.2,88.2c-.3.2-.6.4-.8.7l-1.3-1.6h3.5c-.5.2-1,.6-1.4,1h0v-.1Z"/><path class="cls-1" d="M869.3,114.4c-5.4,47.1-46.4,82.7-60.6,93.8-2.8,2.2-6.5,2.2-8.8,0-9.6-9.1-33.6-35-38.7-70.2,1.3.2,2.6.3,3.9.3,6.6.1,13-1.9,18.2-5.7,4.9,10.2,15.2,17,27.8,17,19.2,0,36.5-15.7,38.8-35.1,2.2-19.4-11.5-35.1-30.7-35.1-7.64-.09-9.9,1.1-14.4,3h0l-13.5.9-5.9,12.8c-4.3-3.6-9.9-5.6-15.9-5.9,10.9-18.1,30.8-30.5,52-30.5s51.4,24.5,47.9,54.7h-.1Z"/><path class="cls-1" d="M785.2,125.9c-.2.4-.5.8-.8,1.2-.6.6-1.3,1.2-2,1.8-.1.1-.2.2-.4.3-1-3.1-1.7-6.4-1.7-9.8l5,6.5h-.1Z"/><polygon class="cls-1" points="844 112 832.3 137.5 801.9 139.8 800.9 139.9 813.1 113.3 814 113.3 844 112"/><path class="cls-1" d="M811,112.4l-12.2,26.5-.4-.6-9.4-12.3-2.3-3-6.4-8.4v-.3c0-.7.2-1.5.3-2.2h0l4.9-10.7,1.7-3.6,1.6-3.5c1.2-1.5,2.6-3,4-4.3l5.5,6.8-3.1,6.8,5.6,7.5,3.3-7.1,6.4,7.8.4.5h0l.1.1Z"/><path class="cls-1" d="M785.2,125.9c-.2.4-.5.8-.8,1.2-.6.6-1.3,1.2-2,1.8-.1.1-.2.2-.4.3-4.6,3.6-10.4,5.4-16.1,5.4s-3.4-.2-5-.5c-3.6-.7-7.1-2.2-10-4.5l-.3-.2s11.4-3.4,9-3.4c-14.5-.2-26.2-8.8-28.5-14.4,1,.2,2,.2,2.9.2,10.8,0,19.7-9.9,27.1-9.8,2.4,0-8.5-3.7-8.5-3.7l.3-.2c4.3-2.9,9.4-4.4,14.5-4.5,6,0,12,1.9,16.3,5.8l-7,15.3,3.5,4.6,5,6.5h0v.1Z"/><path class="cls-1" d="M792.5,114.6c-.3,4-1.4,7.9-3.4,11.5l-2.3-3-6.4-8.4-.5-.6.9-1.9h0l4.9-10.7,1.7-3.6c.5.5,1,1,1.4,1.6l.2.2v.2c2.7,4.5,3.9,9.6,3.6,14.7h-.1Z"/><path class="cls-1" d="M785.2,125.9c-.2.4-.5.8-.8,1.2-.6.6-1.3,1.2-2,1.8-.1.1-.2.2-.4.3-4.6,3.6-10.4,5.4-16.1,5.4s-3.4-.2-5-.5c-3.6-.7-7.1-2.2-10-4.5l-.3-.2s11.4-3.4,9-3.4c-14.5-.2-26.2-8.8-28.5-14.4,1,.2,2,.2,2.9.2,10.8,0,19.7-9.9,27.1-9.8,2.4,0-8.5-3.7-8.5-3.7l.3-.2c4.3-2.9,9.4-4.4,14.5-4.5,6,0,12,1.9,16.3,5.8l-7,15.3,3.5,4.6,5,6.5h0v.1Z"/><path class="cls-1" d="M789,114.5c-.2,3-1,5.9-2.2,8.5l-6.4-8.4-.5-.6.9-1.9h0l4.9-10.7c.1.1.2.3.3.4,2.2,3.8,3.3,8.1,3,12.7h0Z"/><polygon class="cls-1" points="844 112 832.3 137.5 801.9 139.8 800.9 139.9 813.1 113.3 814 113.3 844 112"/><polygon class="cls-1" points="811 112.4 798.9 138.9 798.4 138.4 789.1 126.1 786.8 123.1 780.4 114.7 779.9 114.1 780.8 112.2 780.8 112.2 785.7 101.5 787.4 97.9 788.9 94.4 791.6 88.5 792.9 90.1 798.4 96.9 795.3 103.7 801 111.2 804.2 104 810.6 111.9 811 112.4"/><polygon class="cls-1" points="844 110.1 814 111.3 812.7 111.3 811.9 110.4 805.2 102.1 806.5 102 806.5 102 835.9 99.6 840.8 105.9 843.2 109 844 110.1"/><polygon class="cls-1" points="830.5 92.7 800.8 95.1 799.5 95.2 794.4 88.9 793.1 87.3 794.4 87.2 794.4 87.2 796.6 87.1 796.6 87 824.7 85.2 827.5 88.8 830.5 92.7"/><path class="cls-1" d="M38.1,210.3c1.9-.9,4.6-2.5,6.8-5.6,2.6-3.5,3.3-7.3,4.3-12.4.8-3.9,1.8-11.5,3-23l6.1-52.3c.5-3.9,1-6.4,1.3-7.6.5-1.8,1-3,2-3.6.8-.6,1.8-1.2,3-1.2,1.3-.3,3.8-.3,7.6-.3h43c10.6,0,17.4-.3,20.7-.6,5.3-.6,9.1-2.1,11.4-4.5,2.5-2.4,4.3-6.6,5.6-12.4,1-4.2,2-12.4,3.5-24.8H59.3c-8.6,0-14.4.3-17.9.9-4.1.6-7.3,2.4-9.3,5.1-2,2.4-3.8,6.9-5.1,13.6-.5,3.6-1.5,11.2-3,22.7l-10.8,91.8c-4.4,5.3-8.8,9.3-13.2,14.6h36c.7,0,1.4-.1,2.1-.5h0v.1Z"/><path class="cls-1" d="M725.2,67.5c-1.5-2.4-4.3-3.9-8.3-4.5-3.3-.6-9.3-.9-18.1-.9h-59.5l2.3-19.2c1.8-11.7,2.8-19.5,2.8-23.4.2-1.2.2-2.4.2-3.6,0-3.9-.5-6.9-1.8-8.7-1.5-3-4.5-4.8-9.3-5.7-3.2-.5-9.7-.8-19.6-.9l-18-.6,13,15.8-7,61.1-10.8,91.9-5,42h2.2c9.5,0,15.8-.3,19.1-.6,4.3-.6,7.5-1.8,9.5-3.6,2.8-2.4,4.8-6.6,6-12.6,1-4.2,2.3-12.6,3.8-25.2l7.5-64.3h55.3l-7.5,64.3-5,42.1h2.5c10.3,0,17.3-.3,20.8-.9,5-1.2,8.5-3.3,10.5-6.3,1.8-2.7,3-6.6,4-12,.8-3.9,1.8-11.4,2.8-22.8l7.5-64.3c1.5-13.2,2.3-21.9,2.3-25.8s-.5-9-2.3-11.1h0l.1-.2Z"/><path class="cls-1" d="M1007.8,66c-1.5-1.8-4-2.7-7.3-3.3-3-.6-7.8-.6-14.6-.6h-70.5c-6.5,0-11.3,0-14.3.6-4,.6-7,1.8-9,3.6-2.5,2.1-4.5,6-6,11.7-.8,3.9-2,12.6-3.5,26.4l-1.3,10.8-5,42.3-1.3,11.1-3.2,26.7-12.9,15.6,11.1-.4h0c10.8,0,17.8-.2,21.1-.5,4.5-.9,8-2.4,10-4.2,2.5-2.4,4.5-6,5.5-11.1,1-4.2,2.5-12.9,4-26.1l1.3-11.1,5-42.3c.5-3.3.8-5.4.8-6.3.5-1.8,1.3-3,1.8-3.6.8-.6,1.5-.9,2.5-.9,1-.3,2.8-.3,5.5,0h45.9l-1.3,10.8-5,42.3-1.3,11.1-5,42c12.3,0,20.3-.6,23.8-1.2,4.3-1.2,7.3-3,9.3-5.7,2-2.4,3.3-6.3,4.3-11.1,1-3.9,2-12,3.3-24l1.3-11.1,5-42.3,1.3-10.8c1.5-13.2,2.3-21.9,2.3-25.8v-2.1c-.2-5.1-1.5-8.7-3.5-10.5h-.1Z"/></svg>