<?xml version="1.0" encoding="UTF-8"?><svg id="Layer_1" xmlns="http://www.w3.org/2000/svg" viewBox="0 0 138.58 150.15"><defs><style>.cls-1{fill:#202d71;}</style></defs><path class="cls-1" d="M54.1,66.2c-.2.4-.5.8-.8,1.2-.6.6-1.3,1.2-2,1.8-.1.1-.2.2-.4.3-4.6,3.6-10.4,5.4-16.1,5.4s-3.4-.2-5-.5c-.7-6.3-.7-12.9.1-19.8.8-7.3,3.1-14.3,6.4-20.7,6,0,12,1.9,16.3,5.8l-7,15.3,3.5,4.6,5,6.5h0v.1Z"/><polygon class="cls-1" points="112.9 52.3 101.2 77.8 70.8 80.1 69.8 80.2 82 53.6 82.9 53.6 112.9 52.3"/><polygon class="cls-1" points="79.9 52.7 67.8 79.2 67.3 78.7 58 66.4 55.7 63.4 49.3 55 48.8 54.4 49.7 52.5 49.7 52.5 54.6 41.8 56.3 38.2 57.8 34.7 60.5 28.8 61.8 30.4 67.3 37.2 64.2 44 69.9 51.5 73.1 44.3 79.5 52.2 79.9 52.7"/><path class="cls-1" d="M64.1,28.5c-.3.2-.6.4-.8.7l-1.3-1.6h3.5c-.5.2-1,.6-1.4,1h0v-.1Z"/><path class="cls-1" d="M138.2,54.7c-5.4,47.1-46.4,82.7-60.6,93.8-2.8,2.2-6.5,2.2-8.8,0-9.6-9.1-33.6-35-38.7-70.2,1.3.2,2.6.3,3.9.3,6.6.1,13-1.9,18.2-5.7,4.9,10.2,15.2,17,27.8,17,19.2,0,36.5-15.7,38.8-35.1,2.2-19.4-11.5-35.1-30.7-35.1-7.64-.09-9.9,1.1-14.4,3h0l-13.5.9-5.9,12.8c-4.3-3.6-9.9-5.6-15.9-5.9C49.3,12.4,69.2,0,90.4,0s51.4,24.5,47.9,54.7h-.1Z"/><path class="cls-1" d="M54.1,66.2c-.2.4-.5.8-.8,1.2-.6.6-1.3,1.2-2,1.8-.1.1-.2.2-.4.3-1-3.1-1.7-6.4-1.7-9.8l5,6.5h-.1Z"/><polygon class="cls-1" points="112.9 52.3 101.2 77.8 70.8 80.1 69.8 80.2 82 53.6 82.9 53.6 112.9 52.3"/><path class="cls-1" d="M79.9,52.7l-12.2,26.5-.4-.6-9.4-12.3-2.3-3-6.4-8.4v-.3c0-.7.2-1.5.3-2.2h0l4.9-10.7,1.7-3.6,1.6-3.5c1.2-1.5,2.6-3,4-4.3l5.5,6.8-3.1,6.8,5.6,7.5,3.3-7.1,6.4,7.8.4.5h0l.1.1Z"/><path class="cls-1" d="M54.1,66.2c-.2.4-.5.8-.8,1.2-.6.6-1.3,1.2-2,1.8-.1.1-.2.2-.4.3-4.6,3.6-10.4,5.4-16.1,5.4s-3.4-.2-5-.5c-3.6-.7-7.1-2.2-10-4.5l-.3-.2s11.4-3.4,9-3.4c-14.5-.2-26.2-8.8-28.5-14.4,1,.2,2,.2,2.9.2,10.8,0,19.7-9.9,27.1-9.8,2.4,0-8.5-3.7-8.5-3.7l.3-.2c4.3-2.9,9.4-4.4,14.5-4.5,6,0,12,1.9,16.3,5.8l-7,15.3,3.5,4.6,5,6.5h0v.1Z"/><path class="cls-1" d="M61.4,54.9c-.3,4-1.4,7.9-3.4,11.5l-2.3-3-6.4-8.4-.5-.6.9-1.9h0l4.9-10.7,1.7-3.6c.5.5,1,1,1.4,1.6l.2.2v.2c2.7,4.5,3.9,9.6,3.6,14.7h-.1Z"/><path class="cls-1" d="M54.1,66.2c-.2.4-.5.8-.8,1.2-.6.6-1.3,1.2-2,1.8-.1.1-.2.2-.4.3-4.6,3.6-10.4,5.4-16.1,5.4s-3.4-.2-5-.5c-3.6-.7-7.1-2.2-10-4.5l-.3-.2s11.4-3.4,9-3.4c-14.5-.2-26.2-8.8-28.5-14.4,1,.2,2,.2,2.9.2,10.8,0,19.7-9.9,27.1-9.8,2.4,0-8.5-3.7-8.5-3.7l.3-.2c4.3-2.9,9.4-4.4,14.5-4.5,6,0,12,1.9,16.3,5.8l-7,15.3,3.5,4.6,5,6.5h0v.1Z"/><path class="cls-1" d="M57.9,54.8c-.2,3-1,5.9-2.2,8.5l-6.4-8.4-.5-.6.9-1.9h0l4.9-10.7c.1.1.2.3.3.4,2.2,3.8,3.3,8.1,3,12.7h0Z"/><polygon class="cls-1" points="112.9 52.3 101.2 77.8 70.8 80.1 69.8 80.2 82 53.6 82.9 53.6 112.9 52.3"/><polygon class="cls-1" points="79.9 52.7 67.8 79.2 67.3 78.7 58 66.4 55.7 63.4 49.3 55 48.8 54.4 49.7 52.5 49.7 52.5 54.6 41.8 56.3 38.2 57.8 34.7 60.5 28.8 61.8 30.4 67.3 37.2 64.2 44 69.9 51.5 73.1 44.3 79.5 52.2 79.9 52.7"/><polygon class="cls-1" points="112.9 50.4 82.9 51.6 81.6 51.6 80.8 50.7 74.1 42.4 75.4 42.3 75.4 42.3 104.8 39.9 109.7 46.2 112.1 49.3 112.9 50.4"/><polygon class="cls-1" points="99.4 33 69.7 35.4 68.4 35.5 63.3 29.2 62 27.6 63.3 27.5 63.3 27.5 65.5 27.4 65.5 27.3 93.6 25.5 96.4 29.1 99.4 33"/></svg>